<?xml version="1.0" encoding="UTF-8"?>
<svg width="28px" height="28px" viewBox="0 0 28 28" version="1.1" xmlns="http://www.w3.org/2000/svg" xmlns:xlink="http://www.w3.org/1999/xlink">
    <g id="main" stroke="none" stroke-width="1" fill="none" fill-rule="evenodd" transform="translate(-19.000000, -18.000000)">
        <g id="Menu" transform="translate(19.000000, 18.000000)" fill="#FFFFFF" fill-rule="nonzero">
            <path d="M23.8,22.4 C24.57,22.4 25.2,23.03 25.2,23.8 C25.2,24.57 24.57,25.2 23.8,25.2 L4.2,25.2 C3.43,25.2 2.8,24.57 2.8,23.8 C2.8,23.03 3.43,22.4 4.2,22.4 L23.8,22.4 Z M23.8,19.6 L4.2,19.6 C1.8844,19.6 0,21.4844 0,23.8 C0,26.1156 1.8844,28 4.2,28 L23.8,28 C26.1156,28 28,26.1156 28,23.8 C28,21.4844 26.1156,19.6 23.8,19.6 Z M23.8,12.6 C24.57,12.6 25.2,13.23 25.2,14 C25.2,14.77 24.57,15.4 23.8,15.4 L4.2,15.4 C3.43,15.4 2.8,14.77 2.8,14 C2.8,13.23 3.43,12.6 4.2,12.6 L23.8,12.6 Z M23.8,9.8 L4.2,9.8 C1.8844,9.8 0,11.6844 0,14 C0,16.3156 1.8844,18.2 4.2,18.2 L23.8,18.2 C26.1156,18.2 28,16.3156 28,14 C28,11.6844 26.1156,9.8 23.8,9.8 Z M23.8,2.8 C24.57,2.8 25.2,3.43 25.2,4.2 C25.2,4.97 24.57,5.6 23.8,5.6 L4.2,5.6 C3.43,5.6 2.8,4.97 2.8,4.2 C2.8,3.43 3.43,2.8 4.2,2.8 L23.8,2.8 Z M23.8,0 L4.2,0 C1.8844,0 0,1.8844 0,4.2 C0,6.5156 1.8844,8.4 4.2,8.4 L23.8,8.4 C26.1156,8.4 28,6.5156 28,4.2 C28,1.8844 26.1156,0 23.8,0 Z" id="Shape"/>
        </g>
    </g>
</svg>