<?xml version="1.0" encoding="UTF-8"?>
<svg width="12px" height="14px" viewBox="0 0 12 14" version="1.1" xmlns="http://www.w3.org/2000/svg" xmlns:xlink="http://www.w3.org/1999/xlink">
    <g id="main" stroke="none" stroke-width="1" fill="none" fill-rule="evenodd" transform="translate(-267.000000, -304.000000)">
        <g id="Pencil" transform="translate(267.000000, 304.000000)" fill="#AAABB0" fill-rule="nonzero">
            <g id="Shape">
                <path d="M9.61857126,1.18115346 C8.14494605,0.108223591 7.09613571,0.131565068 6.69777452,0.196143152 C6.58745088,0.215231554 6.48937255,0.277721464 6.42545729,0.369648127 L2.83086993,5.32893381 L1.07014456,7.7587815 C0.85480756,8.05601609 0.729978125,8.4091591 0.710685827,8.77569182 L0.48038326,13.1514406 C0.472406589,13.2989148 0.539679632,13.4403903 0.659101329,13.5272853 C0.778523026,13.6141803 0.933833638,13.6346637 1.07170066,13.5817018 L5.16112732,12.0178229 C5.50580312,11.8855545 5.80535207,11.65603 6.02164975,11.3572591 L7.4563725,9.37712386 L11.3746283,3.97045988 C11.4438173,3.87570513 11.4718679,3.75705102 11.4524333,3.64134506 C11.3870771,3.23209118 11.0735233,2.23930038 9.61857126,1.18115346 Z M5.17357611,11.1432956 L3.58402157,11.7571764 C3.52237141,11.7814463 3.45210269,11.7617329 3.41207269,11.7089373 C3.17360019,11.4026685 2.89185013,11.1327126 2.57566979,10.9075467 C2.2639158,10.6766815 1.92067657,10.4916991 1.55642532,10.3582439 C1.49428657,10.3356339 1.45440546,10.2748627 1.45839112,10.2088585 L1.55331312,8.50804289 L1.98046214,7.92061573 C1.98046214,7.92061573 2.93668462,7.78912542 4.18467556,8.69710885 C5.4311104,9.60431423 5.60150318,10.5550904 5.60150318,10.5550904 L5.17357611,11.1432956 Z"/>
            </g>
        </g>
    </g>
</svg>