<?xml version="1.0" encoding="UTF-8"?>
<svg width="22px" height="22px" viewBox="0 0 22 22" version="1.1" xmlns="http://www.w3.org/2000/svg" xmlns:xlink="http://www.w3.org/1999/xlink">
    <g id="main" stroke="none" stroke-width="1" fill="none" fill-rule="evenodd" transform="translate(-31.000000, -98.000000)">
        <g id="Search" transform="translate(31.000000, 98.000000)" fill="#AAABB0" fill-rule="nonzero">
            <path d="M13.3474145,11.267772 C13.2959382,11.3660449 13.2360385,11.4605741 13.1770748,11.5560392 C13.0642949,11.739014 12.9430917,11.918713 12.8041057,12.0890527 C12.4857551,12.4801549 12.1097274,12.8205208 11.6889422,13.0984559 C11.6458893,13.1270018 11.6000286,13.1499322 11.5560398,13.1770742 C9.44550066,14.4804368 6.69546954,14.0146863 5.13179931,12.0890527 C4.92373845,11.8342115 4.74187372,11.5590627 4.58895848,11.267772 C4.21684423,10.5584021 4.02268325,9.76923168 4.0231873,8.9681859 C4.0231873,8.17732297 4.21177769,7.38646003 4.58895848,6.66859983 C4.82119081,6.22741068 5.11874309,5.82383765 5.4715428,5.4715422 C6.39797498,4.5427759 7.65636307,4.02153512 8.9681865,4.02318671 C10.2335672,4.02318671 11.4994159,4.50612786 12.4648302,5.4715422 C12.8176299,5.82383765 13.1151822,6.22741068 13.3474145,6.66859983 C13.7195288,7.37796968 13.9136897,8.16714012 13.9131857,8.9681859 C13.9131857,9.75904884 13.7245953,10.5499118 13.3474145,11.267772 Z M15.6636875,13.67525 C17.912,10.4796875 17.616125,6.0280625 14.760875,3.173375 C13.2278076,1.63146042 11.1414662,0.767147916 8.967125,0.7731875 C6.79263854,0.767248597 4.70615964,1.63153415 3.1728125,3.173375 C-0.021625,6.3678125 -0.021625,11.5664375 3.1728125,14.760875 C4.70615964,16.3027159 6.79263854,17.1670014 8.967125,17.1610625 C10.6788125,17.1610625 12.3066875,16.632875 13.6769375,15.665375 L19.0055,20.9945 C19.2690307,21.258575 19.6269266,21.4067536 20,21.40625 C20.5685899,21.4058076 21.0810115,21.0631401 21.2986159,20.5378372 C21.5162202,20.0125344 21.396219,19.4078886 20.9945,19.0055 L15.6636875,13.67525 Z" id="Fill-1"/>
        </g>
    </g>
</svg>